<?xml version="1.0" standalone="no"?>
<!DOCTYPE svg PUBLIC "-//W3C//DTD SVG 20010904//EN"
 "http://www.w3.org/TR/2001/REC-SVG-20010904/DTD/svg10.dtd">
<svg version="1.0" xmlns="http://www.w3.org/2000/svg"
 width="90.000000pt" height="90.000000pt" viewBox="0 0 90.000000 90.000000"
 preserveAspectRatio="xMidYMid meet">
<metadata>
Created by potrace 1.11, written by Peter Selinger 2001-2013
</metadata>
<g transform="translate(0.000000,90.000000) scale(0.100000,-0.100000)"
fill="#000000" stroke="none">
<path d="M166 885 c-10 -8 -24 -16 -30 -18 -7 -3 -2 -14 11 -28 19 -22 20 -26
7 -44 -8 -11 -20 -20 -25 -20 -16 0 -39 -36 -39 -61 0 -28 14 -37 55 -38 l30
-1 1 -202 c0 -140 4 -206 12 -216 9 -11 9 -22 -1 -48 -8 -19 -11 -47 -8 -64 9
-45 1 -95 -15 -95 -8 0 -14 -10 -14 -25 0 -24 2 -25 73 -25 68 1 71 1 42 14
-16 7 -40 25 -53 39 -23 24 -23 26 -8 77 9 29 21 59 27 66 6 8 8 14 3 14 -4 0
10 18 31 40 40 41 67 48 110 31 11 -5 29 -4 40 2 18 9 18 8 7 -6 -12 -14 -11
-16 5 -16 59 1 178 -32 166 -46 -4 -4 -3 -6 3 -2 5 3 28 1 50 -4 21 -5 61 -12
89 -15 42 -5 47 -4 37 8 -10 12 -5 18 28 33 22 10 40 24 40 32 0 17 -56 17
-67 0 -12 -21 -44 -29 -62 -16 -9 6 -4 0 12 -14 35 -33 35 -43 0 -20 -19 13
-25 14 -18 4 6 -10 4 -13 -6 -9 -8 3 -59 18 -113 34 -72 20 -94 30 -80 35 28
11 72 10 79 -1 3 -5 14 -10 23 -10 13 1 9 6 -11 22 -29 21 -51 25 -162 29 -46
2 -65 8 -86 27 -36 31 -69 110 -72 168 -2 44 0 48 32 66 33 19 36 19 47 3 9
-12 21 -16 38 -11 15 4 26 2 26 -3 0 -6 17 -22 37 -35 63 -44 82 2 57 142 -10
57 -13 110 -9 155 l6 67 -163 0 c-126 -1 -167 -4 -182 -15z m215 -249 c19 -13
19 -13 -6 -13 -14 0 -28 3 -31 8 -10 17 -45 9 -68 -15 -13 -12 -32 -26 -41
-30 -10 -3 1 12 25 35 36 35 47 40 72 35 16 -3 38 -12 49 -20z"/>
<path d="M100 580 c0 -11 5 -20 10 -20 6 0 10 9 10 20 0 11 -4 20 -10 20 -5 0
-10 -9 -10 -20z"/>
<path d="M323 573 c-15 -5 -18 -33 -4 -33 13 0 33 28 24 33 -4 2 -14 2 -20 0z"/>
<path d="M385 541 c-3 -6 2 -14 12 -19 14 -9 15 -13 4 -26 -10 -11 -10 -16 -2
-16 7 0 23 -12 36 -26 20 -21 27 -24 42 -14 14 9 14 10 2 7 -20 -6 -69 42 -62
60 6 16 -24 47 -32 34z"/>
<path d="M443 513 c4 -6 2 -13 -4 -15 -7 -2 -5 -9 5 -17 14 -12 16 -11 13 7
-2 12 -7 25 -12 29 -4 5 -5 3 -2 -4z"/>
<path d="M470 506 c0 -11 30 -39 36 -34 2 3 -5 13 -16 23 -11 10 -20 15 -20
11z"/>
<path d="M350 488 c-12 -8 -12 -9 2 -5 9 3 19 1 22 -6 3 -9 5 -9 5 0 1 18 -13
23 -29 11z"/>
<path d="M510 445 c0 -15 18 -35 61 -67 18 -14 19 -18 7 -18 -9 0 -20 5 -23
10 -8 13 -25 13 -25 0 0 -5 20 -18 45 -29 25 -11 45 -23 45 -26 0 -3 -6 -3
-12 1 -7 4 -11 5 -8 1 3 -3 8 -5 11 -4 3 1 14 -5 25 -13 17 -14 18 -14 6 1 -7
9 -11 21 -10 25 4 13 -53 85 -62 79 -5 -3 -11 -1 -15 5 -4 6 -10 8 -14 6 -4
-3 -8 1 -8 9 0 20 13 19 21 -1 4 -9 9 -14 13 -10 9 8 -27 46 -44 46 -7 0 -13
-7 -13 -15z"/>
<path d="M360 441 c0 -6 5 -13 10 -16 6 -3 10 -2 10 3 0 5 12 7 28 5 21 -4 24
-2 12 6 -19 13 -60 14 -60 2z"/>
<path d="M390 416 c0 -2 9 -6 20 -9 11 -3 18 -1 14 4 -5 9 -34 13 -34 5z"/>
<path d="M60 389 c-8 -14 -8 -30 0 -55 7 -19 11 -56 10 -82 -4 -67 -1 -84 10
-77 5 3 9 32 8 63 -1 31 2 80 6 108 7 42 5 52 -8 57 -10 4 -20 -1 -26 -14z"/>
<path d="M450 400 c-11 -7 -8 -11 15 -20 15 -6 36 -8 44 -5 13 5 11 9 -9 20
-30 17 -31 17 -50 5z"/>
<path d="M406 225 c-3 -8 -1 -15 4 -15 6 0 10 7 10 15 0 8 -2 15 -4 15 -2 0
-6 -7 -10 -15z"/>
<path d="M445 220 c-16 -7 -17 -9 -3 -9 9 -1 20 4 23 9 7 11 7 11 -20 0z"/>
<path d="M504 199 c-3 -5 4 -9 15 -9 10 0 21 -4 23 -9 2 -5 10 -11 18 -13 8
-2 17 -6 20 -10 3 -4 42 -20 85 -35 44 -15 83 -32 87 -38 4 -5 8 -7 8 -3 0 6
58 -7 118 -26 19 -6 22 -4 22 18 0 14 -4 28 -10 31 -6 3 -7 -1 -4 -9 4 -10 1
-16 -9 -16 -10 0 -13 7 -10 18 3 15 -2 18 -32 19 -19 1 -42 6 -49 12 -7 6 -24
11 -37 10 -40 -1 -104 27 -101 45 2 9 -2 16 -7 16 -5 0 -8 -9 -6 -19 2 -11 -3
-22 -11 -25 -8 -3 -13 -2 -10 3 3 5 0 14 -7 19 -19 16 -96 32 -103 21z"/>
<path d="M660 186 c0 -11 44 -24 101 -30 62 -6 47 10 -16 18 -22 2 -50 8 -62
11 -13 4 -23 4 -23 1z"/>
<path d="M827 149 c7 -7 15 -10 18 -7 3 3 -2 9 -12 12 -14 6 -15 5 -6 -5z"/>
<path d="M228 133 c7 -3 16 -2 19 1 4 3 -2 6 -13 5 -11 0 -14 -3 -6 -6z"/>
<path d="M306 81 c-14 -15 -14 -20 -4 -25 7 -3 3 -4 -9 -2 -29 5 -40 -10 -13
-17 10 -3 24 1 31 9 6 8 16 11 22 7 5 -3 7 -1 4 4 -4 6 0 13 8 17 8 3 15 10
15 16 0 17 -36 11 -54 -9z"/>
<path d="M12 71 c-22 -13 -11 -65 14 -69 28 -4 42 41 20 63 -17 17 -17 17 -34
6z"/>
<path d="M500 29 c0 -5 4 -9 9 -9 5 0 17 -3 27 -7 11 -4 15 -3 11 4 -9 14 -47
24 -47 12z"/>
<path d="M578 3 c6 -2 18 -2 25 0 6 3 1 5 -13 5 -14 0 -19 -2 -12 -5z"/>
</g>
</svg>
