<svg version="1.0" xmlns="http://www.w3.org/2000/svg" width="120" height="120" viewBox="0 0 90 90"><path d="M16.6 1.5c-1 .8-2.4 1.6-3 1.8-.7.3-.2 1.4 1.1 2.8 1.9 2.2 2 2.6.7 4.4-.8 1.1-2 2-2.5 2-1.6 0-3.9 3.6-3.9 6.1 0 2.8 1.4 3.7 5.5 3.8l3 .1.1 20.2c0 14 .4 20.6 1.2 21.6.9 1.1.9 2.2-.1 4.8-.8 1.9-1.1 4.7-.8 6.4.9 4.5.1 9.5-1.5 9.5-.8 0-1.4 1-1.4 2.5 0 2.4.2 2.5 7.3 2.5 6.8-.1 7.1-.1 4.2-1.4-1.6-.7-4-2.5-5.3-3.9-2.3-2.4-2.3-2.6-.8-7.7.9-2.9 2.1-5.9 2.7-6.6.6-.8.8-1.4.3-1.4-.4 0 1-1.8 3.1-4 4-4.1 6.7-4.8 11-3.1 1.1.5 2.9.4 4-.2 1.8-.9 1.8-.8.7.6-1.2 1.4-1.1 1.6.5 1.6 5.9-.1 17.8 3.2 16.6 4.6-.4.4-.3.6.3.2.5-.3 2.8-.1 5 .4 2.1.5 6.1 1.2 8.9 1.5 4.2.5 4.7.4 3.7-.8-1-1.2-.5-1.8 2.8-3.3 2.2-1 4-2.4 4-3.2 0-1.7-5.6-1.7-6.7 0-1.2 2.1-4.4 2.9-6.2 1.6-.9-.6-.4 0 1.2 1.4 3.5 3.3 3.5 4.3 0 2-1.9-1.3-2.5-1.4-1.8-.4.6 1 .4 1.3-.6.9-.8-.3-5.9-1.8-11.3-3.4-7.2-2-9.4-3-8-3.5 2.8-1.1 7.2-1 7.9.1.3.5 1.4 1 2.3 1 1.3-.1.9-.6-1.1-2.2-2.9-2.1-5.1-2.5-16.2-2.9-4.6-.2-6.5-.8-8.6-2.7-3.6-3.1-6.9-11-7.2-16.8-.2-4.4 0-4.8 3.2-6.6 3.3-1.9 3.6-1.9 4.7-.3.9 1.2 2.1 1.6 3.8 1.1 1.5-.4 2.6-.2 2.6.3 0 .6 1.7 2.2 3.7 3.5 6.3 4.4 8.2-.2 5.7-14.2-1-5.7-1.3-11-.9-15.5l.6-6.7H34.8C22.2.1 18.1.4 16.6 1.5zm21.5 24.9c1.9 1.3 1.9 1.3-.6 1.3-1.4 0-2.8-.3-3.1-.8-1-1.7-4.5-.9-6.8 1.5-1.3 1.2-3.2 2.6-4.1 3-1 .3.1-1.2 2.5-3.5 3.6-3.5 4.7-4 7.2-3.5 1.6.3 3.8 1.2 4.9 2z"/><path d="M10 32c0 1.1.5 2 1 2 .6 0 1-.9 1-2s-.4-2-1-2c-.5 0-1 .9-1 2zM32.3 32.7c-1.5.5-1.8 3.3-.4 3.3 1.3 0 3.3-2.8 2.4-3.3-.4-.2-1.4-.2-2 0zM38.5 35.9c-.3.6.2 1.4 1.2 1.9 1.4.9 1.5 1.3.4 2.6-1 1.1-1 1.6-.2 1.6.7 0 2.3 1.2 3.6 2.6 2 2.1 2.7 2.4 4.2 1.4 1.4-.9 1.4-1 .2-.7-2 .6-6.9-4.2-6.2-6 .6-1.6-2.4-4.7-3.2-3.4z"/><path d="M44.3 38.7c.4.6.2 1.3-.4 1.5-.7.2-.5.9.5 1.7 1.4 1.2 1.6 1.1 1.3-.7-.2-1.2-.7-2.5-1.2-2.9-.4-.5-.5-.3-.2.4zM47 39.4c0 1.1 3 3.9 3.6 3.4.2-.3-.5-1.3-1.6-2.3-1.1-1-2-1.5-2-1.1zM35 41.2c-1.2.8-1.2.9.2.5.9-.3 1.9-.1 2.2.6.3.9.5.9.5 0 .1-1.8-1.3-2.3-2.9-1.1zM51 45.5c0 1.5 1.8 3.5 6.1 6.7 1.8 1.4 1.9 1.8.7 1.8-.9 0-2-.5-2.3-1-.8-1.3-2.5-1.3-2.5 0 0 .5 2 1.8 4.5 2.9C60 57 62 58.2 62 58.5c0 .3-.6.3-1.2-.1-.7-.4-1.1-.5-.8-.1.3.3.8.5 1.1.4.3-.1 1.4.5 2.5 1.3 1.7 1.4 1.8 1.4.6-.1-.7-.9-1.1-2.1-1-2.5.4-1.3-5.3-8.5-6.2-7.9-.5.3-1.1.1-1.5-.5-.4-.6-1-.8-1.4-.6-.4.3-.8-.1-.8-.9 0-2 1.3-1.9 2.1.1.4.9.9 1.4 1.3 1 .9-.8-2.7-4.6-4.4-4.6-.7 0-1.3.7-1.3 1.5zM36 45.9c0 .6.5 1.3 1 1.6.6.3 1 .2 1-.3s1.2-.7 2.8-.5c2.1.4 2.4.2 1.2-.6-1.9-1.3-6-1.4-6-.2zM39 48.4c0 .2.9.6 2 .9 1.1.3 1.8.1 1.4-.4-.5-.9-3.4-1.3-3.4-.5zM6 51.1c-.8 1.4-.8 3 0 5.5.7 1.9 1.1 5.6 1 8.2-.4 6.7-.1 8.4 1 7.7.5-.3.9-3.2.8-6.3-.1-3.1.2-8 .6-10.8.7-4.2.5-5.2-.8-5.7-1-.4-2 .1-2.6 1.4zM45 50c-1.1.7-.8 1.1 1.5 2 1.5.6 3.6.8 4.4.5 1.3-.5 1.1-.9-.9-2-3-1.7-3.1-1.7-5-.5zM40.6 67.5c-.3.8-.1 1.5.4 1.5.6 0 1-.7 1-1.5s-.2-1.5-.4-1.5-.6.7-1 1.5zM44.5 68c-1.6.7-1.7.9-.3.9.9.1 2-.4 2.3-.9.7-1.1.7-1.1-2 0zM50.4 70.1c-.3.5.4.9 1.5.9 1 0 2.1.4 2.3.9.2.5 1 1.1 1.8 1.3.8.2 1.7.6 2 1 .3.4 4.2 2 8.5 3.5 4.4 1.5 8.3 3.2 8.7 3.8.4.5.8.7.8.3 0-.6 5.8.7 11.8 2.6 1.9.6 2.2.4 2.2-1.8 0-1.4-.4-2.8-1-3.1-.6-.3-.7.1-.4.9.4 1 .1 1.6-.9 1.6s-1.3-.7-1-1.8c.3-1.5-.2-1.8-3.2-1.9-1.9-.1-4.2-.6-4.9-1.2-.7-.6-2.4-1.1-3.7-1-4 .1-10.4-2.7-10.1-4.5.2-.9-.2-1.6-.7-1.6-.5 0-.8.9-.6 1.9.2 1.1-.3 2.2-1.1 2.5-.8.3-1.3.2-1-.3.3-.5 0-1.4-.7-1.9-1.9-1.6-9.6-3.2-10.3-2.1z"/><path d="M66 71.4c0 1.1 4.4 2.4 10.1 3 6.2.6 4.7-1-1.6-1.8-2.2-.2-5-.8-6.2-1.1-1.3-.4-2.3-.4-2.3-.1zM82.7 75.1c.7.7 1.5 1 1.8.7.3-.3-.2-.9-1.2-1.2-1.4-.6-1.5-.5-.6.5zM22.8 76.7c.7.3 1.6.2 1.9-.1.4-.3-.2-.6-1.3-.5-1.1 0-1.4.3-.6.6zM30.6 81.9c-1.4 1.5-1.4 2-.4 2.5.7.3.3.4-.9.2-2.9-.5-4 1-1.3 1.7 1 .3 2.4-.1 3.1-.9.6-.8 1.6-1.1 2.2-.7.5.3.7.1.4-.4-.4-.6 0-1.3.8-1.7.8-.3 1.5-1 1.5-1.6 0-1.7-3.6-1.1-5.4.9zM1.2 82.9C-1 84.2.1 89.4 2.6 89.8c2.8.4 4.2-4.1 2-6.3-1.7-1.7-1.7-1.7-3.4-.6zM50 87.1c0 .5.4.9.9.9s1.7.3 2.7.7c1.1.4 1.5.3 1.1-.4-.9-1.4-4.7-2.4-4.7-1.2zM57.8 89.7c.6.2 1.8.2 2.5 0 .6-.3.1-.5-1.3-.5-1.4 0-1.9.2-1.2.5z"/></svg>